<?xml version="1.0" standalone="no"?>
<!DOCTYPE svg PUBLIC "-//W3C//DTD SVG 20010904//EN"
 "http://www.w3.org/TR/2001/REC-SVG-20010904/DTD/svg10.dtd">
<svg version="1.0" xmlns="http://www.w3.org/2000/svg"
 width="439.000000pt" height="512.000000pt" viewBox="0 0 439.000000 512.000000"
 preserveAspectRatio="xMidYMid meet">
<metadata>
Created by potrace 1.16, written by Peter Selinger 2001-2019
</metadata>
<g transform="translate(0.000000,512.000000) scale(0.100000,-0.100000)"
fill="#000000" stroke="none">
<path d="M2015 5094 c-189 -20 -388 -64 -561 -125 -170 -59 -419 -195 -574
-312 -79 -60 -302 -279 -373 -367 -393 -486 -560 -1131 -451 -1740 71 -396
243 -753 508 -1061 93 -106 252 -252 354 -324 44 -31 75 -61 83 -80 7 -17 234
-252 508 -528 538 -539 522 -526 648 -543 58 -7 151 10 208 38 52 26 952 922
1005 1001 26 38 66 78 122 119 445 328 753 826 852 1378 96 534 -22 1108 -321
1560 -99 149 -173 237 -319 380 -140 136 -206 189 -348 277 -351 218 -697 320
-1111 328 -104 2 -208 1 -230 -1z m430 -639 c372 -59 763 -290 979 -580 234
-314 335 -626 323 -1000 -7 -230 -53 -421 -146 -614 -74 -152 -183 -317 -189
-284 -41 214 -71 365 -75 369 -7 7 -507 -89 -507 -97 0 -4 41 -35 92 -70 l92
-63 -45 -39 c-255 -227 -520 -326 -844 -314 -260 10 -473 89 -686 257 -109 86
-246 254 -293 358 -10 23 -24 42 -30 42 -17 0 -236 -108 -236 -116 0 -14 94
-171 140 -234 70 -95 262 -277 360 -342 246 -162 498 -238 790 -238 241 0 445
50 663 162 118 61 192 114 315 226 l92 85 56 -37 55 -37 -21 -26 c-79 -100
-306 -265 -470 -341 -250 -116 -514 -164 -780 -142 -148 12 -243 31 -369 74
-413 142 -723 417 -912 807 -155 320 -190 702 -99 1059 34 131 107 302 178
414 l29 45 37 -162 c21 -89 41 -165 45 -170 8 -8 501 103 501 113 0 3 -41 30
-90 60 -49 30 -90 59 -90 65 0 19 126 128 222 192 560 373 1329 184 1653 -407
l37 -68 117 55 c64 30 118 57 120 59 6 6 -33 86 -72 149 -101 162 -261 328
-412 429 -262 175 -531 253 -845 244 -247 -8 -417 -52 -630 -164 -132 -70
-226 -140 -340 -255 l-89 -90 -46 26 -45 27 19 27 c35 49 216 215 299 274 184
132 433 236 647 272 110 18 388 18 500 0z"/>
<path d="M2075 3754 c-50 -8 -198 -55 -240 -76 -185 -94 -349 -271 -414 -448
-61 -166 -71 -354 -28 -521 39 -150 92 -243 206 -363 103 -107 223 -181 371
-227 65 -21 95 -24 230 -24 135 0 165 3 230 24 230 72 419 230 525 440 94 186
103 456 24 671 -65 177 -229 355 -414 448 -96 48 -205 73 -335 77 -69 2 -138
1 -155 -1z m206 -696 c44 -24 79 -85 79 -137 0 -47 -34 -106 -76 -132 -78 -48
-183 -19 -224 62 -72 141 82 285 221 207z"/>
</g>
</svg>
