<svg width="15" height="12" viewBox="0 0 15 12" fill="none" xmlns="http://www.w3.org/2000/svg">
<path d="M3.22852 1.28125H2.26172V10.791H3.22852V11.8984H0.837891V0.167969H3.22852V1.28125ZM11.0332 5.95703C11.0332 6.79297 10.8887 7.52734 10.5996 8.16016C10.3105 8.78906 9.89648 9.27344 9.35742 9.61328C8.82227 9.94922 8.20508 10.1172 7.50586 10.1172C6.81445 10.1172 6.19727 9.94922 5.6543 9.61328C5.11523 9.27344 4.69727 8.79102 4.40039 8.16602C4.10742 7.54102 3.95898 6.82031 3.95508 6.00391V5.52344C3.95508 4.69141 4.10156 3.95703 4.39453 3.32031C4.69141 2.68359 5.10742 2.19727 5.64258 1.86133C6.18164 1.52148 6.79883 1.35156 7.49414 1.35156C8.18945 1.35156 8.80469 1.51953 9.33984 1.85547C9.87891 2.1875 10.2949 2.66797 10.5879 3.29688C10.8809 3.92188 11.0293 4.65039 11.0332 5.48242V5.95703ZM9.55078 5.51172C9.55078 4.56641 9.37109 3.8418 9.01172 3.33789C8.65625 2.83398 8.15039 2.58203 7.49414 2.58203C6.85352 2.58203 6.35156 2.83398 5.98828 3.33789C5.62891 3.83789 5.44531 4.54688 5.4375 5.46484V5.95703C5.4375 6.89453 5.61914 7.61914 5.98242 8.13086C6.34961 8.64258 6.85742 8.89844 7.50586 8.89844C8.16211 8.89844 8.66602 8.64844 9.01758 8.14844C9.37305 7.64844 9.55078 6.91797 9.55078 5.95703V5.51172ZM11.7129 0.167969H14.1152V11.8984H11.7129V10.791H12.6914V1.28125H11.7129V0.167969Z" fill="black"/>
</svg>
